<svg xmlns="http://www.w3.org/2000/svg" width="85" height="85" viewBox="0 0 85 85"><g><g><path fill="#737373" d="M55.644-.003h.946c.152.183.165.053.379.19.287.186.424.61.662.854.1 5.629-1.461 9.288-3.785 12.426-.485.655-.965 1.412-1.608 1.898-.86.648-1.718 1.333-2.65 1.897-.405.245-.966.287-1.23.663-.24.343-.278.764-.473 1.139-.7 1.352-1.274 2.73-1.986 4.173-1.498 3.033-3.123 6.396-4.163 9.77h.189c.687-1.023 1.857-1.914 2.838-2.655.69-.521 1.29-1.285 1.987-1.802 1.785-1.326 3.577-2.493 5.488-3.7 1.258-.795 2.388-2.065 4.352-2.087.471.574.967.666 1.04 1.707-.575.79-.686 1.844-1.134 2.751-1.228 2.483-2.2 5.26-3.312 7.874h.284c.368-.75 2.035-1.75 2.744-2.277 2.1-1.56 3.956-3.563 6.055-5.122.7-.521 2.75-1.8 3.028-2.562.159-.422-.296-1.803-.095-2.656.372-1.576.765-2.976 1.514-4.173 1.32-2.11 3.529-3.651 6.15-4.458 3.707-1.141 8.164 1.364 9.556 3.224.781 1.045 1.627 2.27 2.082 3.606 2.132 6.258-3.042 11.282-7.38 12.52-1.707.487-3.466-.133-5.015-.19-.66.84-2.407 1.555-2.838 2.467 1.573 0 3.35.57 4.73.948 3.707 1.018 8.738 1.805 10.503 4.648.57.919.378 2.8.378 4.269 0 4.864.43 6.912-3.028 8.537.086 4.182-1.202 7.926-2.46 10.908-3.8 9.01-10.687 17.54-20.72 20.204H26.313c-1.24-.37-2.633-.76-3.784-1.328-8.151-4.022-14.19-11.166-17.504-20.015-.797-2.125-1.149-4.457-1.703-6.829l-.19-2.94-.757-.38C1.702 53.023.918 52.307.483 51.6c-.767-1.25-.378-5.316-.378-7.304V41.83c.41-1.342 1.558-2.062 2.649-2.75 3.35-2.117 7.81-2.711 12.3-3.795 1.613-.389 3.254-.29 4.825-.664.6-.142 1.519.085 1.798-.38-.888-.986-1.194-2.64-1.703-3.984-1.135-2.99-1.728-6.314-2.65-9.675l-.189-1.802c-.473-1.971-.889-3.638 1.798-3.604.513.433 1.365.326 2.082.569 1.733.588 3.54 1.26 5.109 2.087 5.969 3.143 10.039 7.887 11.543 15.556h.662c2.58-4.605.408-11.409-1.23-15.177-6.45-.191-10.936-3.537-13.624-7.588-.854-1.287-2.176-2.911-2.176-4.933.266-.3.315-.622.662-.853.457-.37 1.43-.303 2.27-.285 1.716.036 3.522.364 4.92.759 4.632 1.307 8.145 3.104 9.746 7.399.3.804.373 1.81.568 2.656v1.043c.509 1.28 1.378 2.681 1.892 4.079.241.655.51 3.043.946 3.32.077-.503.382-.863.568-1.234.4-.799.535-1.581.946-2.371.511-.982 1.3-2.126 1.703-3.13V14.89c.451-1.977.482-3.958 1.135-5.691 1.148-3.042 3.114-5.755 5.583-7.494.58-.409 1.35-.859 1.987-1.138.498-.218 1.05-.236 1.419-.57zm-1.42 3.985c-.544.81-1.678 1.203-2.27 1.992-1.557 2.075-3.178 4.626-3.217 8.158h.19c.595-.782 1.673-1.197 2.27-1.992 1.535-2.046 3.17-4.714 3.217-8.158h-.19zM36.249 15.08c-.15-4.74-6.224-6.877-10.88-7.4v.095h-.096v.19c.302.244.34.628.568.95.456.643 1.028 1.25 1.514 1.896 1.411 1.874 5.715 4.119 8.894 4.269zm35.764 2.182c.16.98.873 1.832 1.325 2.56 1.425 2.3 2.785 3.923 5.015 5.407.477.318 2.402 1.72 2.838 1.328.884-1.09.78-3.845.284-5.217-.943-2.612-2.184-3.722-5.015-4.458-.512-.134-1.68-.383-2.46-.19-.644.16-1.326.462-1.987.57zm-51.849 1.517c.03 1.838.837 4.578 1.325 6.166 1.55 5.048 2.903 9.793 6.434 12.806.59.503 1.115 1.317 1.797 1.706.414.237.9.161 1.325.38.516.267.884.773 1.514.949v-.19c-.65-.825-.906-1.998-1.42-2.94-1.165-2.143-2.564-4.291-3.973-6.26-.844-1.18-2.836-2.742-2.839-4.554.588-.635.683-1.066 1.987-1.043 2.51 2.527 4.604 5.63 6.529 8.726.42.676 1.598 3.522 2.081 3.794v-2.845c-.258-.425-.047-1.042-.189-1.612-.383-1.54-.67-3.221-1.325-4.554-2.01-4.092-4.977-6.721-8.988-8.821-1.176-.616-2.668-1.62-4.258-1.708zM78.92 29.023c-.974-.179-1.764-.932-2.46-1.422-1.856-1.306-3.514-2.812-4.825-4.648-.45-.63-1.664-3.353-2.27-3.51-.28.997-.852 1.89-1.136 3.13-.177.773.052 1.856.19 2.372.75 2.817 1.832 4.093 4.446 5.028.689.245 2.018.639 3.122.379 1.108-.261 1.996-.774 2.933-1.044v-.285zm-26.397-.853c-.937.955-2.311 1.584-3.406 2.371-2.703 1.943-5.461 4.746-7.38 7.494-1.095 1.567-2.229 3.25-2.271 5.881h.094v.095c7.385-1.414 8.502-4.704 11.07-10.814.671-1.596 1.63-3.324 2.082-5.027h-.19zM40.979 48.564c1.668.02 3.806.23 5.298-.095.663-.144 1.562.187 2.082-.095.266-.144.51-.575.757-.759 1.146-.852 2.188-1.82 3.311-2.656 3.295-2.451 6.35-5.139 9.65-7.588.39-.288 1.446-1.055 1.704-1.423.209-.298.262-.669.568-.853.332-.202.734-.167 1.04-.38.842-.587 1.543-1.472 2.366-2.087.474-.355 1.295-.744 1.514-1.328-.954-.33-2.31-2.122-2.744-3.035-1.445.846-2.558 2.242-3.88 3.225-3.98 2.96-7.575 6.326-11.543 9.296-1.61 1.205-2.92 2.907-4.636 3.983-1.735 1.09-3.587 1.39-5.677 2.182.161.449.194.969.19 1.613zM22.339 37.37c-.451.267-1.094.046-1.703.19-1.3.305-2.764.226-4.163.569-3.238.794-6.617 1.225-9.461 2.276-1.144.423-3.412.826-3.785 1.897-.394.728 2.725 2.402 3.88 2.088 2.28-.622 4.972-.935 7.474-1.518h.946c1.684-.39 3.796-.367 5.488-.76h1.04c1.122-.257 2.602-.31 3.69-.569.652-.154 1.154.119 1.514-.284-1.238-.737-2.948-2.64-3.69-3.889h-1.23zm43.713.664c-.553.553-1.258.952-1.893 1.422-.59.44-1.112 1.08-1.703 1.518-.396.295-.916.484-1.135.949h1.04c.799.489 3.666.29 4.826.57 2.134.515 4.476.528 6.623 1.137 1.152.327 2.56.791 3.69 1.044 1.054.235 4.258-1.474 4.352-2.372l-.662-.759c-1.393-.854-3-.957-4.73-1.518-3.111-1.005-6.858-1.543-10.408-1.991zm-8.137 6.545c-.54.51-1.196.881-1.798 1.328-.429.318-.802.82-1.23 1.139-.452.336-1.17.612-1.42 1.138h1.988c.79-.475 3.839-.118 5.014-.38 1.131-.252 2.45-.094 3.69-.38 2.162-.497 4.569-.609 6.718-1.043v-.095l-.284-.095c-.752-.457-2.215-.236-3.217-.474-2.162-.515-4.83-.448-7.096-.949-.843-.186-1.675.047-2.365-.189zm-36.616.57c-.446.277-1.083.048-1.703.189-1.776.405-4.212.736-6.15.759v.19l6.339.948c.528-.786 1.916-1.36 2.27-2.087H21.3zm8.42.568c-.318.203-.679.07-1.135.19-1.05.274-2.233.521-3.217.948-2.24.974-4.048 2.588-5.015 4.838-.295.688-.19 1.283-.378 2.087-.169.723-.425 2.324-.19 3.32.19.798.352 1.924.568 2.655.416 1.403.642 2.618 1.136 3.795.197.471.128 1.006.567 1.233.445-1.413 1.668-2.654 2.46-3.794 2.323-3.338 4.665-6.654 7.948-9.012a13.25 13.25 0 0 1 2.839-1.517c.673-.253 1.253-.293 1.797-.664l.852-1.044c.053-1.105-.265-2.693-1.23-2.75-.793.626-2.705 1.094-3.69 1.612-2.254 1.185-4.621 2.91-6.055 4.933-.97 1.368-.816 3.587-3.123 3.604-.58-.663-1.06-.629-1.04-1.992.475-.542.565-1.46.946-2.086.474-.78 1.059-1.543 1.608-2.277.557-.743 2.164-2.198 2.933-2.75.562-.404 1.58-.702 1.892-1.329h-.473zm-26.587.57c-.01 1.342-.135 2.993.095 4.173 1.98 1.12 4.063 1.83 6.434 2.656 1.149.4 2.416.446 3.5.759.442.127 3.482.49 3.501.474.344-.413.112-.97.284-1.612.237-.885.642-1.787.852-2.656h-.095v-.095c-1.373-.026-2.796-.356-3.974-.665l-1.608-.19c-1.971-.534-4.09-.82-5.96-1.517-.996-.37-2.002-1.12-3.029-1.328zm78.531 0c-.358.328-.748.328-1.23.568-1.918.956-4.354 1.428-6.623 2.087-.577.168-.915.032-1.514.19-1.929.508-4.32.649-6.339 1.138l-2.744.19c-1.405.328-3.3.241-4.73.57h-1.798c-.83.184-2.069.088-2.933.284h-1.798c-.769.17-1.953-.102-2.838.094-2.56.568-6.806.187-9.746.19-.87 1.088-2.162 1.236-3.5 1.897-.714.353-1.37.882-1.988 1.329-.444.32-1.122.588-1.324 1.138h2.65c.633.396 2.01-.08 2.838.095.849.18 2.114.094 3.122.094h5.582c.827-.01 2.15-.017 2.933-.19 1.534-.338 3.274.112 4.636-.19.966-.213 2.039-.01 2.839-.189h1.608c1.423-.32 3.25-.247 4.636-.569 1.363-.316 2.645-.055 3.974-.38 2.417-.588 5.135-.837 7.38-1.517.48-.146.75-.042 1.23-.19 1.496-.46 3.062-1.06 4.353-1.707.57-.287 1.193-.333 1.419-.949.304-.48.105-3.178.095-3.984h-.19zM6.35 55.203c-.334 1.042.288 3.061.568 3.984.404 1.332.48 2.469.946 3.699.715 1.882 1.737 3.665 2.65 5.312 3.481 6.281 8.717 11.49 16.179 13.754h31.601c8.225-2.514 13.622-8.47 17.22-15.652 1.562-3.115 2.896-6.637 3.217-11.002h-.094v-.095c-2.579 1.083-5.786 1.367-8.705 2.087-1.163.286-2.131.1-3.312.38-2.414.568-5.34.379-7.853.947h-1.514c-1.36.302-3.202.248-4.636.38h-2.46c-1.675.368-4.317.19-6.244.19l-8.989-.095c-.738-.163-1.888.094-2.744-.095-.727-.16-1.582-.188-2.46-.19-.533.933-1.378 1.697-1.987 2.562-.912 1.297-1.613 2.62-2.46 3.983-.32.517-.839 1.077-1.135 1.613-.697 1.26-.836 2.866-2.838 2.846-1.887-1.915-2.857-5.565-3.785-8.442-.274-.85-.283-3.206-.662-3.795v-.095c-1.955-.005-4.469-.656-6.15-1.137-1.548-.445-3.027-.523-4.353-1.139zm61.406 5.501h.946c.152.182.164.052.378.19.287.185.425.61.663.854.033 1.9-.92 3.991-1.514 5.407-1.99 4.738-3.984 8.357-8.42 10.624-1.179.601-3.837 1.621-5.962 1.138-2.082-.474-3.982-.851-5.677-1.708-.574-.29-1.196-.94-1.797-1.138H44.29c-2.703-.605-7.892-.57-7.853-3.7.588-.634.682-1.065 1.987-1.043.95 1.11 5.805 2.035 8.042 1.612.519-1.396 2.877-2.84 4.069-3.699 3.663-2.636 7.95-4.654 12.3-6.64 1.288-.588 2.645-.982 3.879-1.517.426-.185.743-.104 1.04-.38zm-1.987 3.984c-.82.7-2.22.829-3.217 1.328-2.733 1.37-5.555 2.62-8.042 4.173-1 .625-2.464 1.136-3.123 2.088h.473c.397-.298.964-.214 1.514-.38 1.16-.35 2.08-.848 3.501-.758.202.268.515.607.757.853.03.68-.038.935-.19 1.518-1.452.884-3.52 1.355-5.392 1.802v.19c.7.032 1.382.218 1.987.38 1.143.303 2.75-.117 3.5-.38 3.45-1.205 5.064-3.29 6.623-6.355.49-.964.976-2.099 1.42-3.13.122-.285.375-1.124.283-1.234v-.095h-.094z"/><path fill="#a4c58c" d="M55.644-.003h.946c.152.183.165.053.379.19.287.186.424.61.662.854.1 5.629-1.461 9.288-3.785 12.426-.485.655-.965 1.412-1.608 1.898-.86.648-1.718 1.333-2.65 1.897-.405.245-.966.287-1.23.663-.24.343-.278.764-.473 1.139-.7 1.352-1.274 2.73-1.986 4.173-1.498 3.033-3.123 6.396-4.163 9.77h.189c.687-1.023 1.857-1.914 2.838-2.655.69-.521 1.29-1.285 1.987-1.802 1.785-1.326 3.577-2.493 5.488-3.7 1.258-.795 2.388-2.065 4.352-2.087.471.574.967.666 1.04 1.707-.575.79-.686 1.844-1.134 2.751-1.228 2.483-2.2 5.26-3.312 7.874h.284c.368-.75 2.035-1.75 2.744-2.277 2.1-1.56 3.956-3.563 6.055-5.122.7-.521 2.75-1.8 3.028-2.562.159-.422-.296-1.803-.095-2.656.372-1.576.765-2.976 1.514-4.173 1.32-2.11 3.529-3.651 6.15-4.458 3.707-1.141 8.164 1.364 9.556 3.224.781 1.045 1.627 2.27 2.082 3.606 2.132 6.258-3.042 11.282-7.38 12.52-1.707.487-3.466-.133-5.015-.19-.66.84-2.407 1.555-2.838 2.467 1.573 0 3.35.57 4.73.948 3.707 1.018 8.738 1.805 10.503 4.648.57.919.378 2.8.378 4.269 0 4.864.43 6.912-3.028 8.537.086 4.182-1.202 7.926-2.46 10.908-3.8 9.01-10.687 17.54-20.72 20.204H26.313c-1.24-.37-2.633-.76-3.784-1.328-8.151-4.022-14.19-11.166-17.504-20.015-.797-2.125-1.149-4.457-1.703-6.829l-.19-2.94-.757-.38C1.702 53.023.918 52.307.483 51.6c-.767-1.25-.378-5.316-.378-7.304V41.83c.41-1.342 1.558-2.062 2.649-2.75 3.35-2.117 7.81-2.711 12.3-3.795 1.613-.389 3.254-.29 4.825-.664.6-.142 1.519.085 1.798-.38-.888-.986-1.194-2.64-1.703-3.984-1.135-2.99-1.728-6.314-2.65-9.675l-.189-1.802c-.473-1.971-.889-3.638 1.798-3.604.513.433 1.365.326 2.082.569 1.733.588 3.54 1.26 5.109 2.087 5.969 3.143 10.039 7.887 11.543 15.556h.662c2.58-4.605.408-11.409-1.23-15.177-6.45-.191-10.936-3.537-13.624-7.588-.854-1.287-2.176-2.911-2.176-4.933.266-.3.315-.622.662-.853.457-.37 1.43-.303 2.27-.285 1.716.036 3.522.364 4.92.759 4.632 1.307 8.145 3.104 9.746 7.399.3.804.373 1.81.568 2.656v1.043c.509 1.28 1.378 2.681 1.892 4.079.241.655.51 3.043.946 3.32.077-.503.382-.863.568-1.234.4-.799.535-1.581.946-2.371.511-.982 1.3-2.126 1.703-3.13V14.89c.451-1.977.482-3.958 1.135-5.691 1.148-3.042 3.114-5.755 5.583-7.494.58-.409 1.35-.859 1.987-1.138.498-.218 1.05-.236 1.419-.57zm-1.42 3.985c-.544.81-1.678 1.203-2.27 1.992-1.557 2.075-3.178 4.626-3.217 8.158h.19c.595-.782 1.673-1.197 2.27-1.992 1.535-2.046 3.17-4.714 3.217-8.158h-.19zM36.249 15.08c-.15-4.74-6.224-6.877-10.88-7.4v.095h-.096v.19c.302.244.34.628.568.95.456.643 1.028 1.25 1.514 1.896 1.411 1.874 5.715 4.119 8.894 4.269zm35.764 2.182c.16.98.873 1.832 1.325 2.56 1.425 2.3 2.785 3.923 5.015 5.407.477.318 2.402 1.72 2.838 1.328.884-1.09.78-3.845.284-5.217-.943-2.612-2.184-3.722-5.015-4.458-.512-.134-1.68-.383-2.46-.19-.644.16-1.326.462-1.987.57zm-51.849 1.517c.03 1.838.837 4.578 1.325 6.166 1.55 5.048 2.903 9.793 6.434 12.806.59.503 1.115 1.317 1.797 1.706.414.237.9.161 1.325.38.516.267.884.773 1.514.949v-.19c-.65-.825-.906-1.998-1.42-2.94-1.165-2.143-2.564-4.291-3.973-6.26-.844-1.18-2.836-2.742-2.839-4.554.588-.635.683-1.066 1.987-1.043 2.51 2.527 4.604 5.63 6.529 8.726.42.676 1.598 3.522 2.081 3.794v-2.845c-.258-.425-.047-1.042-.189-1.612-.383-1.54-.67-3.221-1.325-4.554-2.01-4.092-4.977-6.721-8.988-8.821-1.176-.616-2.668-1.62-4.258-1.708zM78.92 29.023c-.974-.179-1.764-.932-2.46-1.422-1.856-1.306-3.514-2.812-4.825-4.648-.45-.63-1.664-3.353-2.27-3.51-.28.997-.852 1.89-1.136 3.13-.177.773.052 1.856.19 2.372.75 2.817 1.832 4.093 4.446 5.028.689.245 2.018.639 3.122.379 1.108-.261 1.996-.774 2.933-1.044v-.285zm-26.397-.853c-.937.955-2.311 1.584-3.406 2.371-2.703 1.943-5.461 4.746-7.38 7.494-1.095 1.567-2.229 3.25-2.271 5.881h.094v.095c7.385-1.414 8.502-4.704 11.07-10.814.671-1.596 1.63-3.324 2.082-5.027h-.19zM40.979 48.564c1.668.02 3.806.23 5.298-.095.663-.144 1.562.187 2.082-.095.266-.144.51-.575.757-.759 1.146-.852 2.188-1.82 3.311-2.656 3.295-2.451 6.35-5.139 9.65-7.588.39-.288 1.446-1.055 1.704-1.423.209-.298.262-.669.568-.853.332-.202.734-.167 1.04-.38.842-.587 1.543-1.472 2.366-2.087.474-.355 1.295-.744 1.514-1.328-.954-.33-2.31-2.122-2.744-3.035-1.445.846-2.558 2.242-3.88 3.225-3.98 2.96-7.575 6.326-11.543 9.296-1.61 1.205-2.92 2.907-4.636 3.983-1.735 1.09-3.587 1.39-5.677 2.182.161.449.194.969.19 1.613zM22.339 37.37c-.451.267-1.094.046-1.703.19-1.3.305-2.764.226-4.163.569-3.238.794-6.617 1.225-9.461 2.276-1.144.423-3.412.826-3.785 1.897-.394.728 2.725 2.402 3.88 2.088 2.28-.622 4.972-.935 7.474-1.518h.946c1.684-.39 3.796-.367 5.488-.76h1.04c1.122-.257 2.602-.31 3.69-.569.652-.154 1.154.119 1.514-.284-1.238-.737-2.948-2.64-3.69-3.889h-1.23zm43.713.664c-.553.553-1.258.952-1.893 1.422-.59.44-1.112 1.08-1.703 1.518-.396.295-.916.484-1.135.949h1.04c.799.489 3.666.29 4.826.57 2.134.515 4.476.528 6.623 1.137 1.152.327 2.56.791 3.69 1.044 1.054.235 4.258-1.474 4.352-2.372l-.662-.759c-1.393-.854-3-.957-4.73-1.518-3.111-1.005-6.858-1.543-10.408-1.991zm-8.137 6.545c-.54.51-1.196.881-1.798 1.328-.429.318-.802.82-1.23 1.139-.452.336-1.17.612-1.42 1.138h1.988c.79-.475 3.839-.118 5.014-.38 1.131-.252 2.45-.094 3.69-.38 2.162-.497 4.569-.609 6.718-1.043v-.095l-.284-.095c-.752-.457-2.215-.236-3.217-.474-2.162-.515-4.83-.448-7.096-.949-.843-.186-1.675.047-2.365-.189zm-36.616.57c-.446.277-1.083.048-1.703.189-1.776.405-4.212.736-6.15.759v.19l6.339.948c.528-.786 1.916-1.36 2.27-2.087H21.3zm8.42.568c-.318.203-.679.07-1.135.19-1.05.274-2.233.521-3.217.948-2.24.974-4.048 2.588-5.015 4.838-.295.688-.19 1.283-.378 2.087-.169.723-.425 2.324-.19 3.32.19.798.352 1.924.568 2.655.416 1.403.642 2.618 1.136 3.795.197.471.128 1.006.567 1.233.445-1.413 1.668-2.654 2.46-3.794 2.323-3.338 4.665-6.654 7.948-9.012a13.25 13.25 0 0 1 2.839-1.517c.673-.253 1.253-.293 1.797-.664l.852-1.044c.053-1.105-.265-2.693-1.23-2.75-.793.626-2.705 1.094-3.69 1.612-2.254 1.185-4.621 2.91-6.055 4.933-.97 1.368-.816 3.587-3.123 3.604-.58-.663-1.06-.629-1.04-1.992.475-.542.565-1.46.946-2.086.474-.78 1.059-1.543 1.608-2.277.557-.743 2.164-2.198 2.933-2.75.562-.404 1.58-.702 1.892-1.329h-.473zm-26.587.57c-.01 1.342-.135 2.993.095 4.173 1.98 1.12 4.063 1.83 6.434 2.656 1.149.4 2.416.446 3.5.759.442.127 3.482.49 3.501.474.344-.413.112-.97.284-1.612.237-.885.642-1.787.852-2.656h-.095v-.095c-1.373-.026-2.796-.356-3.974-.665l-1.608-.19c-1.971-.534-4.09-.82-5.96-1.517-.996-.37-2.002-1.12-3.029-1.328zm78.531 0c-.358.328-.748.328-1.23.568-1.918.956-4.354 1.428-6.623 2.087-.577.168-.915.032-1.514.19-1.929.508-4.32.649-6.339 1.138l-2.744.19c-1.405.328-3.3.241-4.73.57h-1.798c-.83.184-2.069.088-2.933.284h-1.798c-.769.17-1.953-.102-2.838.094-2.56.568-6.806.187-9.746.19-.87 1.088-2.162 1.236-3.5 1.897-.714.353-1.37.882-1.988 1.329-.444.32-1.122.588-1.324 1.138h2.65c.633.396 2.01-.08 2.838.095.849.18 2.114.094 3.122.094h5.582c.827-.01 2.15-.017 2.933-.19 1.534-.338 3.274.112 4.636-.19.966-.213 2.039-.01 2.839-.189h1.608c1.423-.32 3.25-.247 4.636-.569 1.363-.316 2.645-.055 3.974-.38 2.417-.588 5.135-.837 7.38-1.517.48-.146.75-.042 1.23-.19 1.496-.46 3.062-1.06 4.353-1.707.57-.287 1.193-.333 1.419-.949.304-.48.105-3.178.095-3.984h-.19zM6.35 55.203c-.334 1.042.288 3.061.568 3.984.404 1.332.48 2.469.946 3.699.715 1.882 1.737 3.665 2.65 5.312 3.481 6.281 8.717 11.49 16.179 13.754h31.601c8.225-2.514 13.622-8.47 17.22-15.652 1.562-3.115 2.896-6.637 3.217-11.002h-.094v-.095c-2.579 1.083-5.786 1.367-8.705 2.087-1.163.286-2.131.1-3.312.38-2.414.568-5.34.379-7.853.947h-1.514c-1.36.302-3.202.248-4.636.38h-2.46c-1.675.368-4.317.19-6.244.19l-8.989-.095c-.738-.163-1.888.094-2.744-.095-.727-.16-1.582-.188-2.46-.19-.533.933-1.378 1.697-1.987 2.562-.912 1.297-1.613 2.62-2.46 3.983-.32.517-.839 1.077-1.135 1.613-.697 1.26-.836 2.866-2.838 2.846-1.887-1.915-2.857-5.565-3.785-8.442-.274-.85-.283-3.206-.662-3.795v-.095c-1.955-.005-4.469-.656-6.15-1.137-1.548-.445-3.027-.523-4.353-1.139zm61.406 5.501h.946c.152.182.164.052.378.19.287.185.425.61.663.854.033 1.9-.92 3.991-1.514 5.407-1.99 4.738-3.984 8.357-8.42 10.624-1.179.601-3.837 1.621-5.962 1.138-2.082-.474-3.982-.851-5.677-1.708-.574-.29-1.196-.94-1.797-1.138H44.29c-2.703-.605-7.892-.57-7.853-3.7.588-.634.682-1.065 1.987-1.043.95 1.11 5.805 2.035 8.042 1.612.519-1.396 2.877-2.84 4.069-3.699 3.663-2.636 7.95-4.654 12.3-6.64 1.288-.588 2.645-.982 3.879-1.517.426-.185.743-.104 1.04-.38zm-1.987 3.984c-.82.7-2.22.829-3.217 1.328-2.733 1.37-5.555 2.62-8.042 4.173-1 .625-2.464 1.136-3.123 2.088h.473c.397-.298.964-.214 1.514-.38 1.16-.35 2.08-.848 3.501-.758.202.268.515.607.757.853.03.68-.038.935-.19 1.518-1.452.884-3.52 1.355-5.392 1.802v.19c.7.032 1.382.218 1.987.38 1.143.303 2.75-.117 3.5-.38 3.45-1.205 5.064-3.29 6.623-6.355.49-.964.976-2.099 1.42-3.13.122-.285.375-1.124.283-1.234v-.095h-.094z"/></g></g></svg>