<svg xmlns="http://www.w3.org/2000/svg" width="97" height="70" viewBox="0 0 97 70"><g><g><path fill="#737373" d="M23.701.031c4.85-.077 9.883.045 13.858 1.04 1.975.494 3.711.522 5.504 1.135 1.31.45 2.71 1.047 3.892 1.703.566.315.999.979 1.708 1.135.331-.467.842-.63 1.329-.946 1.714-1.115 3.885-1.802 6.074-2.46.833-.249 1.504-.153 2.373-.377 1.75-.453 4-.515 5.884-.946h1.519c1.191-.258 2.796.106 4.176-.19.87-.185 2.548-.193 3.417 0 1.374.306 2.987-.076 4.176.19h1.519c.977.224 2.143.121 3.227.378 2.497.591 5.126.895 7.308 1.703 2.603.963 5.228 1.95 6.643 4.067.827 1.236.665 3.412.665 5.487v40.104c0 5.517.133 11.29-.095 16.647-.54.43-.808 1.03-1.614 1.23-.603.15-1.296-.262-1.708-.378-1.138-.321-2.408-.316-3.512-.567-1.232-.28-2.559-.13-3.701-.379h-1.424c-.828-.18-1.943.026-2.942-.189-1.818-.391-4.238-.283-6.264-.283-2.127-.003-4.675-.423-6.644 0-.83.177-1.946-.058-2.658.094h-2.467c-1.1.235-2.643.147-3.702.378l-3.322.19c-1.93.432-4.066.303-6.074.756-.727.164-1.948.594-2.847.378-2.433-.582-5.375-.572-7.878-1.134-1.343-.303-2.827-.107-4.081-.379l-4.081-.19H30.44c-1.257-.267-3.66-.309-4.935-.093-.682.114-1.852-.153-2.563 0l-6.549.094c-.968.207-2.197-.053-3.322.189-2.567.553-5.561.363-7.972.946-1.715.415-3.83.985-4.746-.378-.597-.891-.284-3.254-.284-4.635V52.528 7.88c.32-.282.338-.854.57-1.229.324-.526.932-1.24 1.423-1.608 2.797-2.097 6.267-2.96 10.25-3.973C14.918.408 17.844.714 20.57.125c.9-.194 2.437.343 3.132-.094zm-1.613 4.067c-.38.222-1.095-.02-1.613.095-1.151.252-2.383.002-3.607.283-4.691 1.08-9.8 1.18-12.718 3.974v52.685c0 .803-.178 3.863 0 4.162.102.07.09.057.284.094.685-.446 1.836-.175 2.753-.378 1.5-.331 3.403-.236 4.935-.568h1.804c1.06-.227 2.463.074 3.701-.188 1.93-.41 4.442-.19 6.644-.19 8.057 0 15.165.654 22.114 1.514.405-1.228.095-3.906.095-5.393V48.271 8.638c-.076-.111-.073-.159-.095-.378-5.88-3.737-14.643-4.09-24.297-4.162zM50.56 65.581c1.746-.11 3.834-.38 5.505-.758 1.313-.297 2.77-.11 3.986-.378h1.614c1.43-.307 3.362-.06 4.84-.378h7.498c6.696 0 13.022.59 18.888 1.324V8.354c-.353-.225-.59-.65-.95-.85-.988-.55-1.99-.715-3.131-1.136C84.268 4.69 78.438 4.1 72.296 4.098c-4.32 0-8.624.031-12.149.946-.646.168-1.066.01-1.708.19-2.895.81-5.987 1.407-7.878 3.216v57.13zM13.736 21.124H30.44c3.109 0 5.9-.732 5.885 2.554-.464.515-.592 1.169-1.33 1.419-1.176.4-3.786.095-5.22.095H18.198c-3.187 0-6.008.737-5.98-2.649.32-.336.462-.878.854-1.135.227-.15.48-.116.665-.284zm48.594 0h16.705c1.879 0 4.997-.456 5.505.946 1.098 1.113-.158 3.028-1.52 3.027-.582.366-3.964.095-4.934.095H65.367c-1.96 0-4.175.244-4.365-1.514-.904-1.123.84-2.131 1.328-2.554zM13.736 33.23H30.44c3.114 0 5.9-.74 5.885 2.554-.467.52-.592 1.16-1.33 1.419-1.146.404-3.808.095-5.22.095H18.198c-3.183 0-6.008.73-5.98-2.65.292-.305.411-.79.76-1.039.237-.17.551-.19.759-.379zm48.69 0H79.13c2.889 0 5.773-.576 5.79 2.365-.467.61-.56 1.304-1.33 1.608-1 .395-3.659.095-4.935.095h-11.58c-2.278 0-5.85.558-6.073-1.514-.33-.405-.083-.908 0-1.419.223-.172.268-.49.474-.662.265-.22.677-.258.95-.473zM13.735 45.34h21.07c.802.249 1.011.89 1.519 1.419.012 1.377-.352 2.21-1.33 2.553-1.205.423-4.024.095-5.504.095h-11.01c-1.354 0-3.83.287-4.935-.095-.676-.234-.887-.86-1.329-1.324-.041-2.045.517-1.766 1.519-2.648zm48.69 0H79.13c2.894 0 5.772-.583 5.79 2.364-.459.6-.552 1.333-1.33 1.608-1.122.398-3.74.095-5.125.095h-11.39c-2.278 0-5.85.56-6.073-1.513-.33-.406-.083-.909 0-1.42.208-.158.202-.389.38-.567.268-.27.745-.326 1.043-.567z"/><path fill="#a4c58c" d="M23.701.031c4.85-.077 9.883.045 13.858 1.04 1.975.494 3.711.522 5.504 1.135 1.31.45 2.71 1.047 3.892 1.703.566.315.999.979 1.708 1.135.331-.467.842-.63 1.329-.946 1.714-1.115 3.885-1.802 6.074-2.46.833-.249 1.504-.153 2.373-.377 1.75-.453 4-.515 5.884-.946h1.519c1.191-.258 2.796.106 4.176-.19.87-.185 2.548-.193 3.417 0 1.374.306 2.987-.076 4.176.19h1.519c.977.224 2.143.121 3.227.378 2.497.591 5.126.895 7.308 1.703 2.603.963 5.228 1.95 6.643 4.067.827 1.236.665 3.412.665 5.487v40.104c0 5.517.133 11.29-.095 16.647-.54.43-.808 1.03-1.614 1.23-.603.15-1.296-.262-1.708-.378-1.138-.321-2.408-.316-3.512-.567-1.232-.28-2.559-.13-3.701-.379h-1.424c-.828-.18-1.943.026-2.942-.189-1.818-.391-4.238-.283-6.264-.283-2.127-.003-4.675-.423-6.644 0-.83.177-1.946-.058-2.658.094h-2.467c-1.1.235-2.643.147-3.702.378l-3.322.19c-1.93.432-4.066.303-6.074.756-.727.164-1.948.594-2.847.378-2.433-.582-5.375-.572-7.878-1.134-1.343-.303-2.827-.107-4.081-.379l-4.081-.19H30.44c-1.257-.267-3.66-.309-4.935-.093-.682.114-1.852-.153-2.563 0l-6.549.094c-.968.207-2.197-.053-3.322.189-2.567.553-5.561.363-7.972.946-1.715.415-3.83.985-4.746-.378-.597-.891-.284-3.254-.284-4.635V52.528 7.88c.32-.282.338-.854.57-1.229.324-.526.932-1.24 1.423-1.608 2.797-2.097 6.267-2.96 10.25-3.973C14.918.408 17.844.714 20.57.125c.9-.194 2.437.343 3.132-.094zm-1.613 4.067c-.38.222-1.095-.02-1.613.095-1.151.252-2.383.002-3.607.283-4.691 1.08-9.8 1.18-12.718 3.974v52.685c0 .803-.178 3.863 0 4.162.102.07.09.057.284.094.685-.446 1.836-.175 2.753-.378 1.5-.331 3.403-.236 4.935-.568h1.804c1.06-.227 2.463.074 3.701-.188 1.93-.41 4.442-.19 6.644-.19 8.057 0 15.165.654 22.114 1.514.405-1.228.095-3.906.095-5.393V48.271 8.638c-.076-.111-.073-.159-.095-.378-5.88-3.737-14.643-4.09-24.297-4.162zM50.56 65.581c1.746-.11 3.834-.38 5.505-.758 1.313-.297 2.77-.11 3.986-.378h1.614c1.43-.307 3.362-.06 4.84-.378h7.498c6.696 0 13.022.59 18.888 1.324V8.354c-.353-.225-.59-.65-.95-.85-.988-.55-1.99-.715-3.131-1.136C84.268 4.69 78.438 4.1 72.296 4.098c-4.32 0-8.624.031-12.149.946-.646.168-1.066.01-1.708.19-2.895.81-5.987 1.407-7.878 3.216v57.13zM13.736 21.124H30.44c3.109 0 5.9-.732 5.885 2.554-.464.515-.592 1.169-1.33 1.419-1.176.4-3.786.095-5.22.095H18.198c-3.187 0-6.008.737-5.98-2.649.32-.336.462-.878.854-1.135.227-.15.48-.116.665-.284zm48.594 0h16.705c1.879 0 4.997-.456 5.505.946 1.098 1.113-.158 3.028-1.52 3.027-.582.366-3.964.095-4.934.095H65.367c-1.96 0-4.175.244-4.365-1.514-.904-1.123.84-2.131 1.328-2.554zM13.736 33.23H30.44c3.114 0 5.9-.74 5.885 2.554-.467.52-.592 1.16-1.33 1.419-1.146.404-3.808.095-5.22.095H18.198c-3.183 0-6.008.73-5.98-2.65.292-.305.411-.79.76-1.039.237-.17.551-.19.759-.379zm48.69 0H79.13c2.889 0 5.773-.576 5.79 2.365-.467.61-.56 1.304-1.33 1.608-1 .395-3.659.095-4.935.095h-11.58c-2.278 0-5.85.558-6.073-1.514-.33-.405-.083-.908 0-1.419.223-.172.268-.49.474-.662.265-.22.677-.258.95-.473zM13.735 45.34h21.07c.802.249 1.011.89 1.519 1.419.012 1.377-.352 2.21-1.33 2.553-1.205.423-4.024.095-5.504.095h-11.01c-1.354 0-3.83.287-4.935-.095-.676-.234-.887-.86-1.329-1.324-.041-2.045.517-1.766 1.519-2.648zm48.69 0H79.13c2.894 0 5.772-.583 5.79 2.364-.459.6-.552 1.333-1.33 1.608-1.122.398-3.74.095-5.125.095h-11.39c-2.278 0-5.85.56-6.073-1.513-.33-.406-.083-.909 0-1.42.208-.158.202-.389.38-.567.268-.27.745-.326 1.043-.567z"/></g></g></svg>